<svg width="24" height="24" viewBox="0 0 32 32" fill="none" xmlns="http://www.w3.org/2000/svg">
<path fill-rule="evenodd" clip-rule="evenodd" d="M16.2673 6.00049C16.9833 6.00049 17.6793 6.29449 18.1783 6.80549C18.6763 7.31949 18.9513 8.02449 18.9303 8.73949C18.9323 8.90049 18.9853 9.08649 19.0813 9.24949C19.2403 9.51949 19.4913 9.70949 19.7893 9.78749C20.0873 9.86149 20.3993 9.82149 20.6643 9.66449C21.9443 8.93349 23.5733 9.37149 24.3043 10.6415L24.9273 11.7205C24.9433 11.7495 24.9573 11.7775 24.9693 11.8065C25.6313 13.0575 25.1893 14.6325 23.9593 15.3515C23.7803 15.4545 23.6353 15.5985 23.5353 15.7725C23.3803 16.0415 23.3373 16.3615 23.4153 16.6555C23.4953 16.9555 23.6863 17.2045 23.9553 17.3585C24.5623 17.7075 25.0153 18.2955 25.1963 18.9745C25.3773 19.6525 25.2783 20.3885 24.9253 20.9955L24.2613 22.1015C23.5303 23.3575 21.9013 23.7925 20.6343 23.0605C20.4653 22.9635 20.2703 22.9105 20.0763 22.9055H20.0703C19.7813 22.9055 19.4843 23.0285 19.2683 23.2435C19.0493 23.4625 18.9293 23.7545 18.9313 24.0645C18.9243 25.5335 17.7293 26.7215 16.2673 26.7215H15.0143C13.5453 26.7215 12.3503 25.5275 12.3503 24.0585C12.3483 23.8775 12.2963 23.6895 12.1993 23.5265C12.0423 23.2525 11.7883 23.0565 11.4953 22.9785C11.2043 22.9005 10.8853 22.9435 10.6233 23.0955C9.99532 23.4455 9.25632 23.5305 8.58032 23.3405C7.90532 23.1495 7.32232 22.6855 6.98032 22.0705L6.35532 20.9935C5.62432 19.7255 6.05932 18.1005 7.32532 17.3685C7.68432 17.1615 7.90732 16.7755 7.90732 16.3615C7.90732 15.9475 7.68432 15.5605 7.32532 15.3535C6.05832 14.6175 5.62432 12.9885 6.35432 11.7205L7.03232 10.6075C7.75332 9.35349 9.38332 8.91149 10.6543 9.64149C10.8273 9.74449 11.0153 9.79649 11.2063 9.79849C11.8293 9.79849 12.3503 9.28449 12.3603 8.65249C12.3563 7.95549 12.6313 7.28649 13.1323 6.78149C13.6353 6.27749 14.3033 6.00049 15.0143 6.00049H16.2673ZM16.2673 7.50049H15.0143C14.7043 7.50049 14.4143 7.62149 14.1953 7.83949C13.9773 8.05849 13.8583 8.34949 13.8603 8.65949C13.8393 10.1215 12.6443 11.2985 11.1973 11.2985C10.7333 11.2935 10.2863 11.1685 9.89832 10.9365C9.35332 10.6265 8.64132 10.8175 8.32232 11.3725L7.64532 12.4855C7.33532 13.0235 7.52532 13.7345 8.07732 14.0555C8.89632 14.5295 9.40732 15.4135 9.40732 16.3615C9.40732 17.3095 8.89632 18.1925 8.07532 18.6675C7.52632 18.9855 7.33632 19.6925 7.65432 20.2425L8.28532 21.3305C8.44132 21.6115 8.69632 21.8145 8.99132 21.8975C9.28532 21.9795 9.60932 21.9445 9.87932 21.7945C10.2763 21.5615 10.7383 21.4405 11.2023 21.4405C11.4313 21.4405 11.6603 21.4695 11.8843 21.5295C12.5603 21.7115 13.1473 22.1635 13.4953 22.7705C13.7213 23.1515 13.8463 23.5965 13.8503 24.0505C13.8503 24.7005 14.3723 25.2215 15.0143 25.2215H16.2673C16.9063 25.2215 17.4283 24.7035 17.4313 24.0645C17.4273 23.3585 17.7033 22.6875 18.2083 22.1825C18.7063 21.6845 19.4023 21.3855 20.0983 21.4055C20.5543 21.4165 20.9933 21.5395 21.3803 21.7595C21.9373 22.0785 22.6483 21.8885 22.9703 21.3385L23.6343 20.2315C23.7823 19.9765 23.8253 19.6565 23.7463 19.3615C23.6683 19.0665 23.4723 18.8105 23.2083 18.6595C22.5903 18.3035 22.1493 17.7295 21.9663 17.0415C21.7853 16.3665 21.8843 15.6295 22.2373 15.0225C22.4673 14.6225 22.8043 14.2855 23.2083 14.0535C23.7503 13.7365 23.9403 13.0275 23.6253 12.4755C23.6123 12.4535 23.6003 12.4305 23.5903 12.4065L23.0043 11.3905C22.6853 10.8355 21.9753 10.6445 21.4183 10.9615C20.8163 11.3175 20.1003 11.4195 19.4123 11.2385C18.7253 11.0605 18.1493 10.6255 17.7903 10.0115C17.5603 9.62749 17.4353 9.18049 17.4313 8.72549C17.4403 8.38349 17.3203 8.07649 17.1023 7.85149C16.8853 7.62749 16.5803 7.50049 16.2673 7.50049ZM15.6452 12.9746C17.5122 12.9746 19.0312 14.4946 19.0312 16.3616C19.0312 18.2286 17.5122 19.7466 15.6452 19.7466C13.7782 19.7466 12.2592 18.2286 12.2592 16.3616C12.2592 14.4946 13.7782 12.9746 15.6452 12.9746ZM15.6452 14.4746C14.6052 14.4746 13.7592 15.3216 13.7592 16.3616C13.7592 17.4016 14.6052 18.2466 15.6452 18.2466C16.6852 18.2466 17.5312 17.4016 17.5312 16.3616C17.5312 15.3216 16.6852 14.4746 15.6452 14.4746Z" fill="#494C54"/>
<rect x="0.5" y="0.5" width="31" height="31" rx="3.5" stroke="#D9D9D9"/>
</svg>
