<svg width="25" height="25" viewBox="0 0 25 25" fill="none" xmlns="http://www.w3.org/2000/svg">
<path d="M23.8529 11.061L14.0612 1.26959C13.6439 0.852112 13.0891 0.622131 12.4989 0.622131C11.9088 0.622131 11.354 0.851929 10.9365 1.26941L1.15151 11.0542C1.14822 11.0575 1.14492 11.061 1.14163 11.0643C0.284693 11.9261 0.286157 13.3245 1.14584 14.1842C1.5386 14.5771 2.05734 14.8047 2.61196 14.8286C2.63449 14.8307 2.65719 14.8318 2.68008 14.8318H3.07028V22.0365C3.07028 23.4622 4.23025 24.6221 5.65628 24.6221H9.48647C9.87466 24.6221 9.85342 24.6221 10.4192 24.6221H10.9704C11.0117 24.6221 10.9168 24.6221 11.5674 24.6221H13.2664C13.917 24.6221 14.1464 24.6221 13.8174 24.6221H14.8083C14.8083 24.6221 15.123 24.6221 15.5114 24.6221H19.3416C20.7676 24.6221 21.9276 23.4622 21.9276 22.0365V14.8318H22.2894C22.8794 14.8318 23.4342 14.6021 23.8518 14.1846C24.7124 13.3234 24.7128 11.9227 23.8529 11.061Z" fill="#596794"/>
<path d="M9.27637 19.254C9.27637 17.3831 10.793 15.8664 12.6639 15.8664V15.8664C14.5348 15.8664 16.0515 17.3831 16.0515 19.254V24.6221H9.27637V19.254Z" fill="#DBB8FF"/>
</svg>
