<svg width="59" height="59" viewBox="0 0 59 59" fill="none" xmlns="http://www.w3.org/2000/svg">
<g clip-path="url(#clip0_8_527)">
<path d="M17.712 41.0861H18.648V44.4101H22.38V41.0861H23.304V48.6221H22.38V45.2141H18.648V48.6221H17.712V41.0861ZM25.7393 48.6221V41.0861H28.3673C29.2273 41.0861 29.8773 41.2921 30.3173 41.7041C30.7613 42.1121 30.9833 42.6501 30.9833 43.3181C30.9833 43.9781 30.7613 44.5141 30.3173 44.9261C29.8773 45.3341 29.2273 45.5381 28.3673 45.5381H26.6753V48.6221H25.7393ZM29.9633 48.6221L27.8033 45.2021H28.8233L31.1753 48.6221H29.9633ZM26.6753 44.8781H28.2953C28.8593 44.8781 29.2873 44.7401 29.5793 44.4641C29.8753 44.1841 30.0233 43.8221 30.0233 43.3781C30.0233 42.9221 29.8813 42.5601 29.5973 42.2921C29.3173 42.0241 28.9073 41.8901 28.3673 41.8901H26.6753V44.8781ZM33.087 41.0861H34.431L37.023 46.2941H36.927L39.519 41.0861H40.827V48.6221H39.879V42.0581H40.047L37.287 47.6741H36.663L33.915 42.0941H34.023V48.6221H33.087V41.0861Z" fill="#E1C3FF"/>
<rect x="33.5" y="17.6221" width="6" height="14" rx="3" fill="#596794"/>
<rect x="26.5" y="15.6221" width="6" height="16" rx="3" fill="#596794"/>
<rect x="19.5" y="17.6221" width="6" height="14" rx="3" fill="#596794"/>
<circle cx="36.5" cy="13.6221" r="3" fill="#DBB8FF"/>
<circle cx="29.5" cy="11.6221" r="3" fill="#DBB8FF"/>
<circle cx="22.5" cy="13.6221" r="3" fill="#DBB8FF"/>
</g>
<defs>
<clipPath id="clip0_8_527">
<rect width="58" height="58" fill="white" transform="translate(0.5 0.622131)"/>
</clipPath>
</defs>
</svg>
