<svg width="24" height="25" viewBox="0 0 24 25" fill="none" xmlns="http://www.w3.org/2000/svg">
<path fill-rule="evenodd" clip-rule="evenodd" d="M13.8203 19.8012C13.8203 20.8076 13.0068 21.6212 12.0003 21.6212C10.9939 21.6212 10.1803 20.8076 10.1803 19.8012C10.1803 18.7947 10.9939 17.9721 12.0003 17.9721C13.0068 17.9721 13.8203 18.7783 13.8203 19.783L13.8203 19.8012ZM13.8203 12.5035C13.8203 13.51 13.0068 14.3235 12.0003 14.3235C10.9939 14.3235 10.1803 13.51 10.1803 12.5035C10.1803 11.4971 10.9939 10.6763 12.0003 10.6763C13.0068 10.6763 13.8203 11.4807 13.8203 12.4872L13.8203 12.5035ZM13.8203 5.20752C13.8203 6.21398 13.0068 7.02752 12.0003 7.02752C10.9939 7.02752 10.1803 6.21398 10.1803 5.20752C10.1803 4.20106 10.9939 3.37842 12.0003 3.37842C13.0068 3.37842 13.8203 4.18468 13.8203 5.19114L13.8203 5.20752Z" fill="#7B7B7B"/>
</svg>
