<svg width="24" height="25" viewBox="0 0 24 25" fill="none" xmlns="http://www.w3.org/2000/svg">
<path fill-rule="evenodd" clip-rule="evenodd" d="M14 17.411C14 18.141 13.41 18.731 12.68 18.731C11.95 18.731 11.36 18.141 11.36 17.411C11.36 16.6811 11.95 16.0844 12.68 16.0844C13.41 16.0844 14 16.6692 14 17.3978L14 17.411ZM14 12.1182C14 12.8482 13.41 13.4382 12.68 13.4382C11.95 13.4382 11.36 12.8482 11.36 12.1182C11.36 11.3883 11.95 10.7929 12.68 10.7929C13.41 10.7929 14 11.3764 14 12.1063L14 12.1182ZM14 6.8266C14 7.55656 13.41 8.1466 12.68 8.1466C11.95 8.1466 11.36 7.55656 11.36 6.8266C11.36 6.09664 11.95 5.5 12.68 5.5C13.41 5.5 14 6.08476 14 6.81472L14 6.8266Z" fill="#7B7B7B"/>
</svg>
