<svg width="24" height="24" viewBox="0 0 24 24" fill="none" xmlns="http://www.w3.org/2000/svg">
<path d="M8.35156 20.2417C9.19265 21.3109 10.514 21.9999 11.9998 21.9999C13.4856 21.9999 14.8069 21.3109 15.648 20.2417C13.2262 20.5699 10.7734 20.5699 8.35156 20.2417Z" fill="#BEBEBE"/>
<circle cx="17" cy="6" r="4" fill="#FF5C42"/>
<path fill-rule="evenodd" clip-rule="evenodd" d="M19.1734 11.5943C18.4995 11.8563 17.7665 12 17 12C13.6863 12 11 9.31371 11 6C11 4.47278 11.5706 3.07883 12.5102 2.0197C12.3418 2.00665 12.1717 2 12 2C8.27258 2 5.25089 5.13401 5.25089 9V9.7041C5.25089 10.5491 5.00974 11.3752 4.55782 12.0782L3.45038 13.8012C2.43884 15.3749 3.21107 17.5139 4.97038 18.0116C9.57276 19.3134 14.4273 19.3134 19.0296 18.0116C20.789 17.5139 21.5612 15.3749 20.5496 13.8012L19.4422 12.0782C19.3422 11.9225 19.2524 11.7609 19.1734 11.5943Z" fill="#777777"/>
</svg>
