<svg width="20" height="20" viewBox="0 0 24 24" fill="none" xmlns="http://www.w3.org/2000/svg">
<path d="M19.118 21.4806L19.1179 21.4806L19.113 21.4821C18.9962 21.518 18.8502 21.503 18.7219 21.4281L18.708 21.42L18.6936 21.4128L12.2136 18.1728L11.9902 18.0611L11.7667 18.1726L5.27667 21.4126L5.2766 21.4125L5.26578 21.4183C5.17398 21.4669 5.08295 21.49 5.01 21.49C4.73253 21.49 4.5 21.2603 4.5 20.97V5.79C4.5 4.58737 4.97477 3.79766 5.71993 3.2876C6.49258 2.75871 7.60402 2.5 8.9 2.5H15.07C16.371 2.5 17.4827 2.7587 18.2581 3.28797C19.0062 3.79858 19.486 4.58957 19.5 5.79282V20.97C19.5 21.0623 19.4782 21.1503 19.4396 21.2233C19.3729 21.3454 19.2606 21.4383 19.118 21.4806ZM15.75 7.54H8.22C7.50971 7.54 6.94 8.11802 6.94 8.83C6.94 9.54057 7.5093 10.12 8.22 10.12H15.75C16.4607 10.12 17.03 9.54056 17.03 8.83C17.03 8.11802 16.4603 7.54 15.75 7.54Z" fill="white" stroke="white"/>
</svg>
