<svg width="20" height="20" viewBox="0 0 24 24" fill="none" xmlns="http://www.w3.org/2000/svg">
<path d="M22.1575 8.52684C21.7199 8.46327 21.3022 8.30179 20.9356 8.05443C20.5691 7.80707 20.263 7.4802 20.0403 7.09816C19.8175 6.71612 19.6839 6.28875 19.6492 5.84788C19.6145 5.40702 19.6797 4.96401 19.84 4.55184C19.9419 4.28239 19.9569 3.9878 19.8829 3.70939C19.809 3.43097 19.6497 3.18269 19.4275 2.99934C18.4465 2.17559 17.3299 1.52847 16.1275 1.08684C15.8537 0.985129 15.5548 0.972421 15.2733 1.05053C14.9919 1.12863 14.7423 1.29357 14.56 1.52184C14.2857 1.87258 13.9352 2.15626 13.5349 2.35135C13.1347 2.54645 12.6953 2.64784 12.25 2.64784C11.8048 2.64784 11.3653 2.54645 10.9651 2.35135C10.5649 2.15626 10.2143 1.87258 9.94002 1.52184C9.75778 1.29357 9.50816 1.12863 9.2267 1.05053C8.94525 0.972421 8.64633 0.985129 8.37252 1.08684C7.26227 1.49457 6.22421 2.0769 5.29752 2.81184C5.06392 2.99677 4.89567 3.25162 4.81739 3.53908C4.73912 3.82654 4.75493 4.13152 4.86252 4.40934C5.03558 4.83241 5.10709 5.29015 5.0713 5.74584C5.0355 6.20153 4.89341 6.6425 4.65642 7.03336C4.41942 7.42421 4.09412 7.75409 3.70661 7.99652C3.3191 8.23895 2.88017 8.38719 2.42502 8.42934C2.12952 8.46094 1.85198 8.58657 1.63325 8.78775C1.41452 8.98892 1.26616 9.25501 1.21002 9.54684C1.07036 10.2381 1.00002 10.9416 1.00002 11.6468C0.99899 12.2373 1.04665 12.8268 1.14252 13.4093C1.19023 13.7105 1.33583 13.9876 1.5568 14.1977C1.77778 14.4079 2.06182 14.5393 2.36502 14.5718C2.83016 14.6155 3.27808 14.7699 3.67129 15.0222C4.0645 15.2745 4.39156 15.6173 4.62509 16.022C4.85862 16.4266 4.99182 16.8813 5.01356 17.348C5.03529 17.8147 4.94493 18.2798 4.75002 18.7043C4.62246 18.9805 4.59082 19.2914 4.66012 19.5876C4.72942 19.8838 4.89568 20.1484 5.13252 20.3393C6.1076 21.1481 7.21345 21.7848 8.40252 22.2218C8.55457 22.2745 8.71411 22.3024 8.87502 22.3043C9.09564 22.3039 9.31294 22.2505 9.50869 22.1487C9.70443 22.0469 9.87292 21.8997 10 21.7193C10.2673 21.3299 10.6257 21.0115 11.0439 20.792C11.4621 20.5724 11.9276 20.4582 12.4 20.4593C12.8577 20.4599 13.3089 20.5673 13.7178 20.7731C14.1266 20.9788 14.4818 21.2771 14.755 21.6443C14.9367 21.8886 15.1942 22.066 15.4872 22.1487C15.7802 22.2315 16.0923 22.215 16.375 22.1018C17.4623 21.6643 18.4745 21.0595 19.375 20.3093C19.6012 20.1223 19.7623 19.8684 19.8351 19.584C19.9078 19.2997 19.8886 18.9995 19.78 18.7268C19.6036 18.3092 19.5267 17.8563 19.5553 17.4039C19.584 16.9514 19.7174 16.5119 19.9451 16.1198C20.1727 15.7278 20.4884 15.394 20.8671 15.1449C21.2459 14.8958 21.6774 14.7381 22.1275 14.6843C22.4194 14.644 22.6909 14.5117 22.9026 14.3068C23.1143 14.1018 23.2552 13.8348 23.305 13.5443C23.4255 12.9188 23.4907 12.2838 23.5 11.6468C23.5002 10.975 23.4374 10.3045 23.3125 9.64434C23.2619 9.36032 23.123 9.09947 22.9157 8.89886C22.7083 8.69825 22.4431 8.56808 22.1575 8.52684ZM16 11.6468C16 12.3885 15.7801 13.1135 15.368 13.7302C14.956 14.3469 14.3703 14.8276 13.6851 15.1114C12.9999 15.3952 12.2459 15.4695 11.5184 15.3248C10.791 15.1801 10.1228 14.8229 9.59837 14.2985C9.07392 13.774 8.71677 13.1059 8.57207 12.3784C8.42738 11.651 8.50164 10.897 8.78547 10.2118C9.0693 9.52656 9.54994 8.94089 10.1666 8.52883C10.7833 8.11678 11.5083 7.89684 12.25 7.89684C13.2446 7.89684 14.1984 8.29193 14.9017 8.99519C15.6049 9.69845 16 10.6523 16 11.6468Z" fill="#777777"/>
<circle cx="12.25" cy="11.6523" r="2.5" fill="#BEBEBE"/>
</svg>
