<svg width="34" height="34" viewBox="0 0 34 34" fill="none" xmlns="http://www.w3.org/2000/svg">
<path d="M0 0H32C33.1046 0 34 0.895431 34 2V32C34 33.1046 33.1046 34 32 34H0V0Z" fill="#D0A34C"/>
<path fill-rule="evenodd" clip-rule="evenodd" d="M8.66602 11.6429C8.66602 11.1497 8.93251 10.75 9.26125 10.75H16.4041C16.7329 10.75 16.9993 11.1497 16.9993 11.6429C16.9993 12.136 16.7329 12.5357 16.4041 12.5357H9.26125C8.93251 12.5357 8.66602 12.136 8.66602 11.6429Z" fill="white"/>
<path fill-rule="evenodd" clip-rule="evenodd" d="M8.66602 16.9998C8.66602 16.5067 9.19901 16.1069 9.85649 16.1069H24.1422C24.7997 16.1069 25.3327 16.5067 25.3327 16.9998C25.3327 17.4929 24.7997 17.8926 24.1422 17.8926H9.85649C9.19901 17.8926 8.66602 17.4929 8.66602 16.9998Z" fill="white"/>
<path fill-rule="evenodd" clip-rule="evenodd" d="M17 22.3572C17 21.8641 17.2665 21.4644 17.5952 21.4644H24.7381C25.0668 21.4644 25.3333 21.8641 25.3333 22.3572C25.3333 22.8503 25.0668 23.2501 24.7381 23.2501H17.5952C17.2665 23.2501 17 22.8503 17 22.3572Z" fill="white"/>
</svg>
